# xmcd
#
# Track frame offsets: 
#        150
#        33170
#        56584
#        73895
#        96955
#        131517
#        156168
#
# Disc length: 2450 seconds
#
# Revision: 0
# Processed by: cddbd v1.5.2PL0 Copyright (c) Steve Scherf et al.
# Submitted via: ExactAudioCopy v0.99pb5
#
DISCID=5c099007
DTITLE=Nick Cave Featuring the Bad Seeds  - The Firstborn Is Dead - Re
DTITLE=mastered 2009   FLAC
DYEAR=1900
DGENRE=
TTITLE0=Nick Cave and the Bad Seeds - Tupelo
TTITLE1=Nick Cave and the Bad Seeds - Say Goodbye to the Little Girl T
TTITLE1=ree
TTITLE2=Nick Cave and the Bad Seeds - Train Long-Suffering
TTITLE3=Nick Cave and the Bad Seeds - Black Crow King
TTITLE4=Nick Cave and the Bad Seeds - Knockin' on Joe
TTITLE5=Nick Cave and the Bad Seeds - Wanted Man
TTITLE6=Nick Cave and the Bad Seeds - Blind Lemon Jefferson
EXTD=
EXTT0=
EXTT1=
EXTT2=
EXTT3=
EXTT4=
EXTT5=
EXTT6=
PLAYORDER=
